<mxfile host="app.diagrams.net" modified="2023-11-08T15:43:29.805Z" agent="Mozilla/5.0 (Windows NT 10.0; Win64; x64) AppleWebKit/537.36 (KHTML, like Gecko) Chrome/119.0.0.0 Safari/537.36 Edg/119.0.0.0" etag="IzixknFjxx_NfEZQbLJI" version="22.0.8" type="github">
  <diagram name="Page-1" id="D2NedqLH1LWBN-bwxuxe">
    <mxGraphModel dx="1025" dy="753" grid="1" gridSize="10" guides="1" tooltips="1" connect="1" arrows="1" fold="1" page="1" pageScale="1" pageWidth="827" pageHeight="1169" math="0" shadow="0">
      <root>
        <mxCell id="0" />
        <mxCell id="1" parent="0" />
        <mxCell id="6v_-cQ9rZhJdJq9Y2nHa-1" value="" style="ellipse;html=1;shape=startState;fillColor=#000000;strokeColor=#ff0000;" vertex="1" parent="1">
          <mxGeometry x="390" y="40" width="30" height="30" as="geometry" />
        </mxCell>
        <mxCell id="6v_-cQ9rZhJdJq9Y2nHa-2" value="" style="edgeStyle=orthogonalEdgeStyle;html=1;verticalAlign=bottom;endArrow=open;endSize=8;strokeColor=#ff0000;rounded=0;" edge="1" source="6v_-cQ9rZhJdJq9Y2nHa-1" parent="1">
          <mxGeometry relative="1" as="geometry">
            <mxPoint x="405" y="120" as="targetPoint" />
          </mxGeometry>
        </mxCell>
        <mxCell id="6v_-cQ9rZhJdJq9Y2nHa-12" value="nombre1 est un entier" style="rounded=1;whiteSpace=wrap;html=1;arcSize=40;fontColor=#000000;fillColor=#ffffc0;strokeColor=#ff0000;" vertex="1" parent="1">
          <mxGeometry x="345" y="140" width="120" height="40" as="geometry" />
        </mxCell>
        <mxCell id="6v_-cQ9rZhJdJq9Y2nHa-14" value="nombre2 est un entier" style="rounded=1;whiteSpace=wrap;html=1;arcSize=40;fontColor=#000000;fillColor=#ffffc0;strokeColor=#ff0000;" vertex="1" parent="1">
          <mxGeometry x="345" y="200" width="120" height="40" as="geometry" />
        </mxCell>
        <mxCell id="6v_-cQ9rZhJdJq9Y2nHa-15" value="" style="edgeStyle=orthogonalEdgeStyle;html=1;verticalAlign=bottom;endArrow=open;endSize=8;strokeColor=#ff0000;rounded=0;" edge="1" source="6v_-cQ9rZhJdJq9Y2nHa-14" parent="1">
          <mxGeometry relative="1" as="geometry">
            <mxPoint x="405" y="300" as="targetPoint" />
          </mxGeometry>
        </mxCell>
        <mxCell id="6v_-cQ9rZhJdJq9Y2nHa-16" value="resultat1 est un entier" style="rounded=1;whiteSpace=wrap;html=1;arcSize=40;fontColor=#000000;fillColor=#ffffc0;strokeColor=#ff0000;" vertex="1" parent="1">
          <mxGeometry x="345" y="260" width="120" height="40" as="geometry" />
        </mxCell>
        <mxCell id="6v_-cQ9rZhJdJq9Y2nHa-17" value="" style="edgeStyle=orthogonalEdgeStyle;html=1;verticalAlign=bottom;endArrow=open;endSize=8;strokeColor=#ff0000;rounded=0;" edge="1" source="6v_-cQ9rZhJdJq9Y2nHa-16" parent="1">
          <mxGeometry relative="1" as="geometry">
            <mxPoint x="405" y="360" as="targetPoint" />
          </mxGeometry>
        </mxCell>
        <mxCell id="6v_-cQ9rZhJdJq9Y2nHa-18" value="resultat2 est un entier" style="rounded=1;whiteSpace=wrap;html=1;arcSize=40;fontColor=#000000;fillColor=#ffffc0;strokeColor=#ff0000;" vertex="1" parent="1">
          <mxGeometry x="345" y="320" width="120" height="40" as="geometry" />
        </mxCell>
        <mxCell id="6v_-cQ9rZhJdJq9Y2nHa-22" value="Variables" style="rounded=1;whiteSpace=wrap;html=1;arcSize=40;fontColor=#000000;fillColor=#ffffc0;strokeColor=#ff0000;" vertex="1" parent="1">
          <mxGeometry x="310" y="80" width="190" height="40" as="geometry" />
        </mxCell>
        <mxCell id="6v_-cQ9rZhJdJq9Y2nHa-24" value="Algorithme" style="rounded=1;whiteSpace=wrap;html=1;arcSize=40;fontColor=#000000;fillColor=#ffffc0;strokeColor=#ff0000;" vertex="1" parent="1">
          <mxGeometry x="305" y="390" width="200" height="40" as="geometry" />
        </mxCell>
        <mxCell id="6v_-cQ9rZhJdJq9Y2nHa-26" value="ecrire nombre 1" style="rounded=1;whiteSpace=wrap;html=1;arcSize=40;fontColor=#000000;fillColor=#ffffc0;strokeColor=#ff0000;" vertex="1" parent="1">
          <mxGeometry x="345" y="450" width="120" height="40" as="geometry" />
        </mxCell>
        <mxCell id="6v_-cQ9rZhJdJq9Y2nHa-28" value="afficher nombre1" style="rounded=1;whiteSpace=wrap;html=1;arcSize=40;fontColor=#000000;fillColor=#ffffc0;strokeColor=#ff0000;" vertex="1" parent="1">
          <mxGeometry x="345" y="500" width="120" height="40" as="geometry" />
        </mxCell>
        <mxCell id="6v_-cQ9rZhJdJq9Y2nHa-30" value="ecrire nombre 2" style="rounded=1;whiteSpace=wrap;html=1;arcSize=40;fontColor=#000000;fillColor=#ffffc0;strokeColor=#ff0000;" vertex="1" parent="1">
          <mxGeometry x="345" y="560" width="120" height="40" as="geometry" />
        </mxCell>
        <mxCell id="6v_-cQ9rZhJdJq9Y2nHa-31" value="" style="edgeStyle=orthogonalEdgeStyle;html=1;verticalAlign=bottom;endArrow=open;endSize=8;strokeColor=#ff0000;rounded=0;" edge="1" source="6v_-cQ9rZhJdJq9Y2nHa-30" parent="1">
          <mxGeometry relative="1" as="geometry">
            <mxPoint x="405" y="660" as="targetPoint" />
          </mxGeometry>
        </mxCell>
        <mxCell id="6v_-cQ9rZhJdJq9Y2nHa-32" value="afficher nombre2" style="rounded=1;whiteSpace=wrap;html=1;arcSize=40;fontColor=#000000;fillColor=#ffffc0;strokeColor=#ff0000;" vertex="1" parent="1">
          <mxGeometry x="345" y="620" width="120" height="40" as="geometry" />
        </mxCell>
        <mxCell id="6v_-cQ9rZhJdJq9Y2nHa-33" value="" style="edgeStyle=orthogonalEdgeStyle;html=1;verticalAlign=bottom;endArrow=open;endSize=8;strokeColor=#ff0000;rounded=0;" edge="1" source="6v_-cQ9rZhJdJq9Y2nHa-32" parent="1">
          <mxGeometry relative="1" as="geometry">
            <mxPoint x="405" y="720" as="targetPoint" />
          </mxGeometry>
        </mxCell>
        <mxCell id="6v_-cQ9rZhJdJq9Y2nHa-34" value="resultat1 prend la valeur nombre1 + nombre2" style="rounded=1;whiteSpace=wrap;html=1;arcSize=40;fontColor=#000000;fillColor=#ffffc0;strokeColor=#ff0000;" vertex="1" parent="1">
          <mxGeometry x="320" y="680" width="170" height="40" as="geometry" />
        </mxCell>
        <mxCell id="6v_-cQ9rZhJdJq9Y2nHa-35" value="" style="edgeStyle=orthogonalEdgeStyle;html=1;verticalAlign=bottom;endArrow=open;endSize=8;strokeColor=#ff0000;rounded=0;" edge="1" source="6v_-cQ9rZhJdJq9Y2nHa-34" parent="1">
          <mxGeometry relative="1" as="geometry">
            <mxPoint x="405" y="780" as="targetPoint" />
          </mxGeometry>
        </mxCell>
        <mxCell id="6v_-cQ9rZhJdJq9Y2nHa-36" value="resultat2 prend la valeur&amp;nbsp; resultat1 / 2" style="rounded=1;whiteSpace=wrap;html=1;arcSize=40;fontColor=#000000;fillColor=#ffffc0;strokeColor=#ff0000;" vertex="1" parent="1">
          <mxGeometry x="320" y="740" width="170" height="40" as="geometry" />
        </mxCell>
        <mxCell id="6v_-cQ9rZhJdJq9Y2nHa-37" value="" style="edgeStyle=orthogonalEdgeStyle;html=1;verticalAlign=bottom;endArrow=open;endSize=8;strokeColor=#ff0000;rounded=0;" edge="1" source="6v_-cQ9rZhJdJq9Y2nHa-36" parent="1">
          <mxGeometry relative="1" as="geometry">
            <mxPoint x="405" y="840" as="targetPoint" />
          </mxGeometry>
        </mxCell>
        <mxCell id="6v_-cQ9rZhJdJq9Y2nHa-38" value="afficher resultat2" style="rounded=1;whiteSpace=wrap;html=1;arcSize=40;fontColor=#000000;fillColor=#ffffc0;strokeColor=#ff0000;" vertex="1" parent="1">
          <mxGeometry x="320" y="800" width="170" height="40" as="geometry" />
        </mxCell>
        <mxCell id="6v_-cQ9rZhJdJq9Y2nHa-39" value="" style="edgeStyle=orthogonalEdgeStyle;html=1;verticalAlign=bottom;endArrow=open;endSize=8;strokeColor=#ff0000;rounded=0;" edge="1" source="6v_-cQ9rZhJdJq9Y2nHa-38" parent="1">
          <mxGeometry relative="1" as="geometry">
            <mxPoint x="405" y="890" as="targetPoint" />
          </mxGeometry>
        </mxCell>
        <mxCell id="6v_-cQ9rZhJdJq9Y2nHa-41" value="" style="ellipse;html=1;shape=endState;fillColor=#000000;strokeColor=#ff0000;" vertex="1" parent="1">
          <mxGeometry x="390" y="880" width="30" height="30" as="geometry" />
        </mxCell>
        <mxCell id="6v_-cQ9rZhJdJq9Y2nHa-50" value="" style="endArrow=open;endFill=1;endSize=12;html=1;rounded=0;exitX=0.5;exitY=1;exitDx=0;exitDy=0;entryX=0.5;entryY=0;entryDx=0;entryDy=0;" edge="1" parent="1" source="6v_-cQ9rZhJdJq9Y2nHa-22" target="6v_-cQ9rZhJdJq9Y2nHa-12">
          <mxGeometry width="160" relative="1" as="geometry">
            <mxPoint x="510" y="410" as="sourcePoint" />
            <mxPoint x="670" y="410" as="targetPoint" />
          </mxGeometry>
        </mxCell>
        <mxCell id="6v_-cQ9rZhJdJq9Y2nHa-51" value="" style="endArrow=open;endFill=1;endSize=12;html=1;rounded=0;exitX=0.5;exitY=1;exitDx=0;exitDy=0;entryX=0.5;entryY=0;entryDx=0;entryDy=0;" edge="1" parent="1" source="6v_-cQ9rZhJdJq9Y2nHa-12" target="6v_-cQ9rZhJdJq9Y2nHa-14">
          <mxGeometry width="160" relative="1" as="geometry">
            <mxPoint x="510" y="410" as="sourcePoint" />
            <mxPoint x="670" y="410" as="targetPoint" />
          </mxGeometry>
        </mxCell>
        <mxCell id="6v_-cQ9rZhJdJq9Y2nHa-52" value="" style="endArrow=open;endFill=1;endSize=12;html=1;rounded=0;exitX=0.5;exitY=1;exitDx=0;exitDy=0;" edge="1" parent="1" source="6v_-cQ9rZhJdJq9Y2nHa-18" target="6v_-cQ9rZhJdJq9Y2nHa-24">
          <mxGeometry width="160" relative="1" as="geometry">
            <mxPoint x="510" y="410" as="sourcePoint" />
            <mxPoint x="670" y="410" as="targetPoint" />
          </mxGeometry>
        </mxCell>
        <mxCell id="6v_-cQ9rZhJdJq9Y2nHa-53" value="" style="endArrow=open;endFill=1;endSize=12;html=1;rounded=0;exitX=0.5;exitY=1;exitDx=0;exitDy=0;" edge="1" parent="1" source="6v_-cQ9rZhJdJq9Y2nHa-24">
          <mxGeometry width="160" relative="1" as="geometry">
            <mxPoint x="420" y="410" as="sourcePoint" />
            <mxPoint x="405" y="450" as="targetPoint" />
          </mxGeometry>
        </mxCell>
        <mxCell id="6v_-cQ9rZhJdJq9Y2nHa-54" value="" style="endArrow=open;endFill=1;endSize=12;html=1;rounded=0;exitX=0.5;exitY=1;exitDx=0;exitDy=0;" edge="1" parent="1" source="6v_-cQ9rZhJdJq9Y2nHa-26" target="6v_-cQ9rZhJdJq9Y2nHa-28">
          <mxGeometry width="160" relative="1" as="geometry">
            <mxPoint x="420" y="730" as="sourcePoint" />
            <mxPoint x="580" y="730" as="targetPoint" />
          </mxGeometry>
        </mxCell>
        <mxCell id="6v_-cQ9rZhJdJq9Y2nHa-55" value="" style="endArrow=open;endFill=1;endSize=12;html=1;rounded=0;exitX=0.5;exitY=1;exitDx=0;exitDy=0;entryX=0.5;entryY=0;entryDx=0;entryDy=0;" edge="1" parent="1" source="6v_-cQ9rZhJdJq9Y2nHa-28" target="6v_-cQ9rZhJdJq9Y2nHa-30">
          <mxGeometry width="160" relative="1" as="geometry">
            <mxPoint x="420" y="730" as="sourcePoint" />
            <mxPoint x="580" y="730" as="targetPoint" />
          </mxGeometry>
        </mxCell>
      </root>
    </mxGraphModel>
  </diagram>
</mxfile>
